<svg
  width="20"
  height="23"
  viewBox="0 0 20 23"
  fill="none"
  xmlns="http://www.w3.org/2000/svg"
>
  <path
    fillRule="evenodd"
    clipRule="evenodd"
    d="M8.12233 19.8458C8.65253 20.4364 9.33321 20.7608 10.0395 20.7608H10.0405C10.7498 20.7608 11.4336 20.4364 11.9648 19.8447C12.2494 19.5305 12.7345 19.5049 13.0488 19.7884C13.364 20.072 13.3896 20.5582 13.1061 20.8724C12.279 21.7905 11.191 22.2962 10.0405 22.2962H10.0384C8.89103 22.2952 7.80502 21.7895 6.98105 20.8714C6.69752 20.5571 6.72311 20.071 7.03837 19.7884C7.35363 19.5039 7.8388 19.5295 8.12233 19.8458ZM10.0904 0.289459C14.6402 0.289459 17.6966 3.83306 17.6966 7.14225C17.6966 8.84445 18.1296 9.56606 18.5891 10.3317C19.0436 11.0871 19.5585 11.9448 19.5585 13.5662C19.2012 17.7086 14.8767 18.0463 10.0904 18.0463C5.30424 18.0463 0.978633 17.7086 0.625488 13.6317C0.622431 11.9448 1.13729 11.0871 1.59175 10.3317L1.75219 10.0616C2.14722 9.3827 2.4843 8.64419 2.4843 7.14225C2.4843 3.83306 5.54068 0.289459 10.0904 0.289459ZM10.0904 1.82481C6.51307 1.82481 4.01966 4.62734 4.01966 7.14225C4.01966 9.27025 3.42906 10.2539 2.90704 11.1219C2.4884 11.8189 2.15778 12.3696 2.15778 13.5662C2.32872 15.4966 3.60306 16.511 10.0904 16.511C16.542 16.511 17.8563 15.4516 18.0262 13.4996C18.0231 12.3696 17.6925 11.8189 17.2739 11.1219C16.7518 10.2539 16.1612 9.27025 16.1612 7.14225C16.1612 4.62734 13.6678 1.82481 10.0904 1.82481Z"
    fill="#1E2875"
  />
</svg>
